<?xml version="1.0" encoding="UTF-8"?>
<svg version="1.1" xmlns="http://www.w3.org/2000/svg" width="1024" height="1024">
<path d="M0 0 C7.1942058 1.87122439 14.64187548 2.56018101 22 3.52148438 C32.44885474 4.94375256 42.4090952 7.29205003 52.4296875 10.546875 C57.79081713 12.26675242 63.16600895 13.82618243 68.6171875 15.234375 C73.0570522 16.39300358 77.32187625 17.63402569 81.57421875 19.34765625 C84.15554857 20.31010236 86.78189608 21.03609177 89.4296875 21.796875 C95.30156051 23.57977665 100.95039973 25.75711325 106.6171875 28.109375 C107.83692261 28.60763794 107.83692261 28.60763794 109.08129883 29.1159668 C113.53142603 30.99844601 116.84304586 33.06419529 120.6171875 36.109375 C123.59601678 37.70522883 126.66520945 39.0893454 129.7421875 40.484375 C136.85423352 43.77846788 143.8102447 47.2146199 150.6171875 51.109375 C151.34808594 51.52316406 152.07898438 51.93695313 152.83203125 52.36328125 C154.43090754 53.27194956 156.02482338 54.1893424 157.6171875 55.109375 C157.6171875 55.769375 157.6171875 56.429375 157.6171875 57.109375 C158.2565625 57.33625 158.8959375 57.563125 159.5546875 57.796875 C166.99390676 60.98511182 173.40625933 65.26325079 179.84375 70.14453125 C182.63344146 72.20750254 182.63344146 72.20750254 185.9609375 73.8984375 C190.42679331 76.39370559 193.85637228 79.86571771 197.4921875 83.421875 C203.70238466 89.40941622 203.70238466 89.40941622 210.4296875 94.796875 C215.22957786 98.35778793 219.10257904 102.7425934 223.04296875 107.19921875 C224.55237599 108.90560478 226.0827642 110.59453619 227.66015625 112.23828125 C235.80194564 120.84736981 239.50965843 129.66552387 239.40917969 141.45263672 C238.83558125 152.52396234 235.39669248 165.23340563 228.6171875 174.109375 C227.89165982 175.76743121 227.1696904 177.42737345 226.48339844 179.10205078 C224.79041806 183.02529899 222.73908142 186.77196593 220.7421875 190.546875 C220.10990234 191.75827148 220.10990234 191.75827148 219.46484375 192.99414062 C211.97691188 207.20289208 211.97691188 207.20289208 207.6171875 210.109375 C205.87461471 213.3612054 204.30396972 216.64699124 202.75390625 219.9921875 C200.52439686 224.65940948 198.04534336 228.23505059 194.6171875 232.109375 C193.9365625 233.140625 193.2559375 234.171875 192.5546875 235.234375 C190.76209108 237.89435679 189.03690871 240.01228328 186.6171875 242.109375 C185.9571875 242.109375 185.2971875 242.109375 184.6171875 242.109375 C184.40707031 242.8003125 184.19695312 243.49125 183.98046875 244.203125 C182.19532616 248.00870119 179.69407375 250.59770517 176.8046875 253.609375 C176.28326172 254.16496094 175.76183594 254.72054687 175.22460938 255.29296875 C172.08273207 258.6270458 168.8647658 261.87803459 165.6171875 265.109375 C164.97394531 265.77582031 164.33070313 266.44226563 163.66796875 267.12890625 C163.09433594 267.72058594 162.52070312 268.31226563 161.9296875 268.921875 C161.34832031 269.52644531 160.76695312 270.13101562 160.16796875 270.75390625 C158.6171875 272.109375 158.6171875 272.109375 156.6171875 272.109375 C156.6171875 272.769375 156.6171875 273.429375 156.6171875 274.109375 C154.53515625 275.73046875 154.53515625 275.73046875 151.8046875 277.546875 C148.16932408 279.95548568 148.16932408 279.95548568 144.91796875 282.83203125 C143.6171875 284.109375 143.6171875 284.109375 141.6171875 284.109375 C141.2871875 285.099375 140.9571875 286.089375 140.6171875 287.109375 C138.32421875 288.9765625 138.32421875 288.9765625 135.4296875 290.984375 C131.33404416 293.88129346 127.43400353 296.84917798 123.6171875 300.109375 C112.97660529 308.98721016 112.97660529 308.98721016 109.1796875 311.421875 C106.60960524 312.98075124 106.60960524 312.98075124 104.8046875 314.984375 C102.13850815 317.5743778 99.22540541 319.4443186 96.1171875 321.46875 C92.68413188 323.72169275 89.33001242 326.07993348 85.9765625 328.44921875 C84.51737456 329.47596523 83.05007618 330.49141755 81.5703125 331.48828125 C78.80385789 333.37396291 76.63210207 335.09039282 74.5546875 337.734375 C72.22624161 340.588599 69.92308 341.56193596 66.6171875 343.109375 C65.60997798 344.10211312 64.61125294 345.10347545 63.6171875 346.109375 C57.60262265 350.8413509 51.57890482 354.94242143 44.6171875 358.109375 C43.78526886 358.61498459 42.95335022 359.12059418 42.09622192 359.64152527 C37.58838752 361.54343905 33.84260233 361.52332003 29.00341797 361.48168945 C28.05311707 361.48534012 27.10281616 361.48899078 26.12371826 361.49275208 C22.9937534 361.5008347 19.86430987 361.48726826 16.734375 361.47265625 C14.55534872 361.47213746 12.37632196 361.4726559 10.19729614 361.47416687 C5.63617951 361.47407725 1.07524003 361.4636678 -3.48583984 361.44555664 C-9.33474195 361.42284305 -15.18338592 361.42233143 -21.03232002 361.42907429 C-25.52926939 361.43241364 -30.0261598 361.42578522 -34.52309799 361.41594505 C-36.68008999 361.41209423 -38.83708855 361.41094435 -40.9940834 361.4125309 C-44.00546045 361.41290131 -47.0165049 361.40028875 -50.02783203 361.3840332 C-50.92039703 361.38651062 -51.81296204 361.38898804 -52.73257446 361.39154053 C-53.55398926 361.38445572 -54.37540405 361.37737091 -55.22171021 361.37007141 C-55.93291582 361.36801854 -56.64412144 361.36596567 -57.37687874 361.36385059 C-60.65749815 360.94766658 -62.79338825 359.72062977 -65.0703125 357.359375 C-67.95075519 354.55678211 -71.1516508 352.59522729 -74.5546875 350.4765625 C-75.15796875 350.02539062 -75.76125 349.57421875 -76.3828125 349.109375 C-76.3828125 348.449375 -76.3828125 347.789375 -76.3828125 347.109375 C-77.08792969 346.861875 -77.79304687 346.614375 -78.51953125 346.359375 C-81.75168693 344.94833841 -84.34610152 343.1843024 -87.1953125 341.109375 C-88.17113281 340.408125 -89.14695312 339.706875 -90.15234375 338.984375 C-90.88839844 338.365625 -91.62445313 337.746875 -92.3828125 337.109375 C-92.3828125 336.449375 -92.3828125 335.789375 -92.3828125 335.109375 C-93.08019531 334.87734375 -93.77757812 334.6453125 -94.49609375 334.40625 C-97.94161211 332.85833106 -100.6597215 330.71794986 -103.5703125 328.359375 C-107.48135227 325.25428344 -111.32621369 322.43269353 -115.6953125 319.984375 C-120.09048984 317.4820636 -123.35571608 314.43975537 -126.7890625 310.74609375 C-128.30225607 309.01264605 -128.30225607 309.01264605 -130.3828125 308.109375 C-130.3828125 307.449375 -130.3828125 306.789375 -130.3828125 306.109375 C-131.2078125 305.92375 -132.0328125 305.738125 -132.8828125 305.546875 C-136.91236627 303.8918797 -139.32946493 301.70270562 -142.49609375 298.77734375 C-144.42032275 296.97028588 -144.42032275 296.97028588 -147.1328125 295.484375 C-149.90538843 293.79002304 -151.36262078 291.63461465 -153.3828125 289.109375 C-155.03813873 288.09071271 -156.70541388 287.09126687 -158.3828125 286.109375 C-160.04947917 284.44270833 -161.71614583 282.77604167 -163.3828125 281.109375 C-165.49606054 279.50866846 -167.63738831 277.96245406 -169.80859375 276.44140625 C-170.32808594 276.00183594 -170.84757812 275.56226563 -171.3828125 275.109375 C-171.3828125 274.449375 -171.3828125 273.789375 -171.3828125 273.109375 C-172.1459375 272.84125 -172.9090625 272.573125 -173.6953125 272.296875 C-176.27269868 271.15802995 -177.65236114 270.29520829 -179.3828125 268.109375 C-179.3828125 267.449375 -179.3828125 266.789375 -179.3828125 266.109375 C-180.218125 265.7690625 -180.218125 265.7690625 -181.0703125 265.421875 C-184.03521222 263.73909408 -185.9993275 261.54828988 -188.3828125 259.109375 C-190.17998098 257.56116492 -191.99816627 256.0435637 -193.83203125 254.5390625 C-195.3828125 253.109375 -195.3828125 253.109375 -197.3828125 250.109375 C-198.2078125 249.635 -199.0328125 249.160625 -199.8828125 248.671875 C-202.68226465 246.9222174 -203.02103987 246.00314185 -204.3828125 243.109375 C-206.02584203 241.41940177 -207.69752562 239.75721106 -209.3828125 238.109375 C-215.01989278 232.1111088 -219.88182046 225.96683486 -223.0078125 218.296875 C-224.32838375 215.23555074 -225.13010044 214.35125671 -227.3828125 212.109375 C-231.4349937 206.3383776 -234.95346599 200.30959825 -238.00390625 193.95703125 C-239.06939776 191.75662528 -240.16505745 189.58618125 -241.29296875 187.41796875 C-245.24254739 179.77789189 -248.60668102 172.2646291 -251.35546875 164.1015625 C-252.17688999 161.70913409 -253.06951153 159.461279 -254.1328125 157.171875 C-256.61190873 151.09808923 -256.58910208 144.6464803 -256.6328125 138.171875 C-256.6534375 137.41197266 -256.6740625 136.65207031 -256.6953125 135.86914062 C-256.73335808 130.30021891 -255.59301767 126.22192855 -253.3828125 121.109375 C-252.7228125 121.109375 -252.0628125 121.109375 -251.3828125 121.109375 C-251.14175781 120.3978125 -250.90070313 119.68625 -250.65234375 118.953125 C-249.19373851 115.68584925 -247.36286006 113.35272603 -245.0703125 110.609375 C-243.93142578 109.23265625 -243.93142578 109.23265625 -242.76953125 107.828125 C-239.43108083 104.02524203 -236.12191436 100.40878189 -231.8828125 97.609375 C-228.69134925 95.39883768 -226.06329612 92.93093671 -223.3828125 90.109375 C-221.75444512 88.4052696 -220.09511498 86.72912059 -218.3828125 85.109375 C-217.7228125 85.109375 -217.0628125 85.109375 -216.3828125 85.109375 C-216.3828125 84.449375 -216.3828125 83.789375 -216.3828125 83.109375 C-215.4340625 82.861875 -214.4853125 82.614375 -213.5078125 82.359375 C-210.29588059 81.4236673 -210.29588059 81.4236673 -209.0078125 78.984375 C-208.8015625 78.365625 -208.5953125 77.746875 -208.3828125 77.109375 C-207.7228125 77.109375 -207.0628125 77.109375 -206.3828125 77.109375 C-206.3828125 76.449375 -206.3828125 75.789375 -206.3828125 75.109375 C-204.78149414 73.87597656 -204.78149414 73.87597656 -202.54296875 72.5 C-201.72634766 71.99210937 -200.90972656 71.48421875 -200.06835938 70.9609375 C-198.76995117 70.16816406 -198.76995117 70.16816406 -197.4453125 69.359375 C-195.76881192 68.32408061 -194.09302824 67.2876244 -192.41796875 66.25 C-191.17104248 65.48139648 -191.17104248 65.48139648 -189.89892578 64.69726562 C-186.60402931 62.61789374 -183.39393883 60.42302593 -180.19311523 58.20214844 C-178.3828125 57.109375 -178.3828125 57.109375 -176.3828125 57.109375 C-176.0528125 56.119375 -175.7228125 55.129375 -175.3828125 54.109375 C-173.1875 52.78515625 -173.1875 52.78515625 -170.2578125 51.421875 C-165.39638 49.09508486 -160.62264095 46.67072059 -155.8828125 44.109375 C-151.2754006 41.62796382 -146.64454403 39.22704658 -141.9453125 36.921875 C-138.67831624 35.31650333 -135.63171206 33.66744332 -132.6328125 31.609375 C-116.17259703 21.06140019 -93.25068259 16.57260557 -74.50195312 12.15039062 C-70.27589352 11.14363649 -66.20651498 10.11523981 -62.171875 8.4921875 C-58.3814951 6.999503 -54.67493799 6.53571966 -50.6328125 6.234375 C-42.13468147 5.44926189 -33.78024123 4.05550397 -25.3828125 2.546875 C-24.13532227 2.32467285 -22.88783203 2.1024707 -21.60253906 1.87353516 C-4.62427346 -1.21747615 -4.62427346 -1.21747615 0 0 Z " fill="#1FC896" transform="translate(536.3828125,354.890625)"/>
<path d="M0 0 C0.95326172 -0.020625 1.90652344 -0.04125 2.88867188 -0.0625 C3.79810547 -0.06765625 4.70753906 -0.0728125 5.64453125 -0.078125 C6.46928955 -0.0874707 7.29404785 -0.09681641 8.14379883 -0.10644531 C8.81822021 0.01118164 9.4926416 0.12880859 10.1875 0.25 C13.08319936 4.59354904 12.8596438 8.14842854 12.1875 13.25 C10.59255944 18.54397577 8.73909859 23.79151137 5.77734375 28.484375 C3.3616932 32.68653861 1.75887052 37.15520105 0.0625 41.6875 C-0.32639404 42.72213379 -0.71528809 43.75676758 -1.1159668 44.82275391 C-4.759222 54.72778541 -7.79931709 64.78244535 -10.71728516 74.91967773 C-12.50713635 81.1027623 -14.47129201 87.04309901 -16.9440918 92.98388672 C-18.30536529 96.53613316 -19.07212048 100.15208082 -19.8125 103.875 C-20.14521539 105.46003966 -20.47988702 107.04466982 -20.81640625 108.62890625 C-20.98156738 109.41023926 -21.14672852 110.19157227 -21.31689453 110.99658203 C-22.04153743 114.29138693 -22.89726049 117.54880218 -23.75 120.8125 C-28.0132545 137.40456822 -30.95601756 154.36656313 -33.8125 171.25 C-31.05476312 170.37390673 -28.30803082 169.4754448 -25.5625 168.5625 C-24.78519531 168.31822266 -24.00789063 168.07394531 -23.20703125 167.82226562 C-18.28729093 166.16132765 -15.80491745 164.67266802 -12.8125 160.25 C-11.6119794 159.17544408 -10.38261024 158.1321428 -9.125 157.125 C-1.95133772 150.97230838 3.74015946 144.06584995 7.1875 135.25 C7.96528451 133.34156479 8.74545305 131.43410032 9.52734375 129.52734375 C10.83266289 126.34252398 12.1370946 123.15759896 13.42773438 119.96679688 C15.62615335 114.62587309 17.89571212 109.97666978 21.1875 105.25 C22.02100168 103.29639828 22.79134518 101.31477198 23.5 99.3125 C25.61305131 93.59943535 28.04402265 88.14016778 30.66235352 82.64916992 C32.38620597 79.0171895 33.98394206 75.37306319 35.4375 71.625 C36.74522102 68.25595602 38.25277909 65.31330811 40.1875 62.25 C41.2565613 60.15206767 42.29287401 58.0404691 43.3203125 55.921875 C44.1875 54.25 44.1875 54.25 45.1875 53.25 C48.0625 52.9375 48.0625 52.9375 51.1875 53.25 C54.54195414 56.60445414 55.71150267 61.04386681 57.1875 65.4375 C57.45022705 66.20054443 57.7129541 66.96358887 57.98364258 67.74975586 C59.5176427 72.21832347 61.02198419 76.69731074 62.48706055 81.18896484 C63.14676094 83.13012579 63.88739326 85.04324004 64.6328125 86.953125 C69.99911591 101.30448328 70.57095169 116.09950259 70.5625 131.25 C70.56422211 132.04296478 70.56594421 132.83592957 70.56771851 133.65292358 C70.56345518 151.01610947 68.1667339 167.86991386 62.1875 184.25 C61.77757812 185.42046875 61.36765625 186.5909375 60.9453125 187.796875 C58.37470312 195.00906104 55.510806 202.00467879 52.125 208.875 C51.80893799 209.5254126 51.49287598 210.1758252 51.16723633 210.84594727 C48.97073787 215.18320122 46.34327658 218.55804779 43.1875 222.25 C42.28359629 223.74180857 41.42167942 225.26077946 40.625 226.8125 C38.76587945 230.28673153 36.7249558 233.22142372 34.1875 236.25 C33.548125 237.219375 32.90875 238.18875 32.25 239.1875 C26.36189516 247.93044355 26.36189516 247.93044355 21.1875 250.25 C20.5275 251.24 19.8675 252.23 19.1875 253.25 C18.5275 253.25 17.8675 253.25 17.1875 253.25 C16.8575 254.24 16.5275 255.23 16.1875 256.25 C12.51806191 260.33394869 8.36939944 263.49971124 3.9375 266.6875 C2.94278687 267.40873047 2.94278687 267.40873047 1.92797852 268.14453125 C-4.79311419 272.99624065 -11.38912069 277.53831035 -18.8125 281.25 C-19.6375 281.930625 -20.4625 282.61125 -21.3125 283.3125 C-24.05863979 285.44075834 -26.48701483 286.32195763 -29.8125 287.25 C-29.8125 287.91 -29.8125 288.57 -29.8125 289.25 C-30.43898438 289.52714844 -31.06546875 289.80429687 -31.7109375 290.08984375 C-32.52820313 290.45207031 -33.34546875 290.81429688 -34.1875 291.1875 C-34.99960938 291.54714844 -35.81171875 291.90679687 -36.6484375 292.27734375 C-38.04933785 292.9069903 -39.43875284 293.56312642 -40.8125 294.25 C-39.71035156 294.57097656 -38.60820312 294.89195312 -37.47265625 295.22265625 C-35.20050781 296.20639649 -34.07787326 296.77314676 -32.86279297 298.95654297 C-32.18823784 301.18743511 -31.69587481 303.39980864 -31.25 305.6875 C-30.85904061 307.40055868 -30.46437907 309.11277581 -30.06640625 310.82421875 C-29.8667627 311.71286621 -29.66711914 312.60151367 -29.46142578 313.51708984 C-28.38166787 318.06442244 -27.04043878 322.52772757 -25.6875 327 C-25.44572021 327.82040771 -25.20394043 328.64081543 -24.95483398 329.48608398 C-23.52851372 334.23608715 -21.85501591 338.72987602 -19.8125 343.25 C-18.8225 343.25 -17.8325 343.25 -16.8125 343.25 C-16.585625 342.651875 -16.35875 342.05375 -16.125 341.4375 C-14.37073799 338.51372999 -12.94400836 337.61152537 -9.8125 336.25 C-6.83632664 335.7056502 -4.92376988 335.85491811 -1.8125 336.25 C4.14176384 341.70807519 7.55039417 350.82694948 11.09960938 358.04736328 C12.68906344 361.27288948 14.30109853 364.45586739 16.0390625 367.60546875 C19.00669333 373.04143707 21.34617834 377.82084085 20.8828125 384.13671875 C20.02793705 386.7349638 19.20828978 387.50355904 16.9375 389 C15.37215054 389.78684529 13.78594867 390.53277877 12.1875 391.25 C10.16516142 392.26784808 8.14439803 393.28883031 6.125 394.3125 C5.09632813 394.81652344 4.06765625 395.32054687 3.0078125 395.83984375 C0.78205598 396.95272201 -1.36178933 398.10699135 -3.5 399.375 C-10.58552492 403.38567448 -16.79855822 405.6926154 -24.91796875 406.7578125 C-27.8390578 407.16234129 -27.8390578 407.16234129 -30.58203125 408.27734375 C-34.87092515 409.5686794 -38.85686257 409.65631747 -43.3125 409.6875 C-44.14136719 409.72037109 -44.97023438 409.75324219 -45.82421875 409.78710938 C-50.02983386 409.82388343 -52.88728575 409.65340506 -56.22265625 406.9453125 C-66.5837013 396.16232444 -72.95534009 382.3813487 -79.359375 369.0234375 C-80.66228015 366.20143683 -80.66228015 366.20143683 -82.8125 364.25 C-83.57104492 362.48852539 -83.57104492 362.48852539 -84.29296875 360.34765625 C-84.56681396 359.54884033 -84.84065918 358.75002441 -85.12280273 357.92700195 C-85.41227783 357.06421631 -85.70175293 356.20143066 -86 355.3125 C-87.8579521 349.84481239 -89.72749774 344.39567812 -91.828125 339.015625 C-92.15014893 338.18281006 -92.47217285 337.34999512 -92.80395508 336.49194336 C-93.41694686 334.91778047 -94.04111898 333.3479074 -94.6784668 331.78344727 C-96.75720044 326.39260999 -97.0924538 322.02618967 -96.8125 316.25 C-91.8625 314.27 -91.8625 314.27 -86.8125 312.25 C-88.04613281 312.44142578 -88.04613281 312.44142578 -89.3046875 312.63671875 C-94.59108453 313.10675636 -98.30536446 313.36654817 -102.69140625 310.1171875 C-105.27873223 307.28100421 -107.62838526 304.39931249 -109.8125 301.25 C-110.28397461 300.58258789 -110.75544922 299.91517578 -111.24121094 299.22753906 C-128.1633127 274.65408236 -135.34179804 245.48629273 -138.8125 216.25 C-138.94083473 215.24071693 -138.94083473 215.24071693 -139.07176208 214.21104431 C-139.71587634 208.90002201 -139.97266647 203.6795616 -139.98046875 198.33203125 C-139.98379715 197.51232346 -139.98712555 196.69261566 -139.99055481 195.84806824 C-139.99558162 194.12454787 -139.99796446 192.40101792 -139.99780273 190.67749023 C-139.99998004 188.08625627 -140.01815628 185.49545534 -140.03710938 182.90429688 C-140.07048749 173.13888884 -139.53563746 163.88394075 -137.8125 154.25 C-137.68238525 153.42975342 -137.55227051 152.60950684 -137.41821289 151.7644043 C-133.94642343 130.16765832 -127.66564692 108.30637473 -116.8125 89.25 C-115.76989041 87.31300724 -114.7281519 85.37554523 -113.6875 83.4375 C-113.213125 82.58285156 -112.73875 81.72820312 -112.25 80.84765625 C-111.23331358 79.01043758 -110.23505689 77.16296335 -109.25 75.30859375 C-104.11834429 65.67391016 -104.11834429 65.67391016 -100.8125 62.25 C-100.1525 62.25 -99.4925 62.25 -98.8125 62.25 C-98.60625 61.569375 -98.4 60.88875 -98.1875 60.1875 C-96.69353445 56.99584633 -94.93056432 54.88934118 -92.59375 52.2890625 C-89.81939263 49.1131534 -87.29878656 45.73904644 -84.7421875 42.38671875 C-82.77757531 40.21132833 -81.39147348 39.52002279 -78.8125 38.25 C-76.2943397 35.88300888 -73.95698079 33.40843779 -71.62890625 30.85546875 C-65.04914589 23.79676569 -58.26012346 19.70225725 -49.8125 15.25 C-48.6310319 14.56164084 -47.4513503 13.87020665 -46.2734375 13.17578125 C-43.09065843 11.40477664 -40.03863621 10.06286865 -36.625 8.8125 C-31.21890591 6.80310024 -25.93279428 4.61058168 -20.6640625 2.265625 C-13.98547763 -0.11304906 -7.00621431 0.03868165 0 0 Z M-64.23046875 302.12109375 C-65.48408203 302.53037109 -66.73769531 302.93964844 -68.02929688 303.36132812 C-69.3529285 303.80319401 -70.6764954 304.24525381 -72 304.6875 C-73.33501886 305.12646572 -74.67030263 305.56462665 -76.00585938 306.00195312 C-79.27743689 307.0767313 -82.54606478 308.15971305 -85.8125 309.25 C-85.8125 309.91 -85.8125 310.57 -85.8125 311.25 C-79.56272015 310.24342488 -73.5422479 308.66989586 -67.5 306.8125 C-66.4780957 306.50469604 -66.4780957 306.50469604 -65.43554688 306.19067383 C-61.5469385 304.96855342 -58.20989852 303.50398006 -54.8125 301.25 C-58.71258811 299.94997063 -60.35120801 300.83970898 -64.23046875 302.12109375 Z " fill="#1FC896" transform="translate(264.8125,179.75)"/>
<path d="M0 0 C1.64258789 0.04157227 1.64258789 0.04157227 3.31835938 0.08398438 C9.72861704 0.35505543 14.84320685 1.32906348 20.69750977 3.95483398 C24.93737018 5.81482724 29.44745382 6.70943157 33.93359375 7.8125 C37.30183555 9.07394816 37.9225947 10.0998417 39.9375 12.9375 C42.31261498 13.9517354 42.31261498 13.9517354 45 14.625 C51.61146023 16.82000479 56.3327516 20.76340093 60.9375 25.9375 C60.9375 26.5975 60.9375 27.2575 60.9375 27.9375 C61.824375 28.185 62.71125 28.4325 63.625 28.6875 C72.30645944 31.96352243 77.57665003 40.33495468 82.93359375 47.53125 C84.60272586 49.53551 86.25781297 51.15858223 88.1640625 52.91796875 C93.1265806 57.81400399 96.38199375 63.76835534 99.875 69.75 C100.5649018 70.90610865 101.25565163 72.06171169 101.94726562 73.21679688 C106.9375 81.64685315 106.9375 81.64685315 106.9375 83.9375 C107.9275 83.9375 108.9175 83.9375 109.9375 83.9375 C116.86181026 100.44694597 123.20040766 116.9115625 126.90625 134.46875 C127.54655168 137.4704687 128.38641323 140.25055484 129.45703125 143.125 C131.55714424 149.23634202 132.02729131 155.53447395 132.625 161.9375 C132.71880951 162.92126114 132.71880951 162.92126114 132.81451416 163.92489624 C135.2172633 189.47582792 136.50692955 219.38892613 126.7890625 243.68359375 C124.57366981 249.54727074 122.83645258 255.63349628 121.19140625 261.6796875 C119.76306853 266.86043788 117.85917646 271.16210266 115.12109375 275.78515625 C113.99217683 277.83807118 113.23127815 279.78020303 112.5 282 C110.84587034 286.66832149 107.98488767 290.08923985 104.9375 293.9375 C103.51129238 295.8470778 102.09495714 297.76406039 100.6875 299.6875 C100.02234375 300.58984375 99.3571875 301.4921875 98.671875 302.421875 C96.9031594 304.80983318 96.9031594 304.80983318 95.9609375 307.21875 C94.9375 308.9375 94.9375 308.9375 92.9921875 309.546875 C90.97395833 309.67708333 88.95572917 309.80729167 86.9375 309.9375 C88.2575 310.5975 89.5775 311.2575 90.9375 311.9375 C91.84498926 320.40739981 88.8738521 327.07224172 85.78417969 334.75976562 C84.66030244 337.65047642 83.6676703 340.578757 82.67358398 343.51611328 C80.35106811 350.36734252 77.74070896 356.82238013 74.33203125 363.2265625 C72.84904717 366.01538347 72.84904717 366.01538347 71.53125 369.35546875 C69.8883942 373.04786769 67.88071612 376.29372329 65.625 379.625 C62.06145401 385.00397832 59.03497992 390.4471606 56.32421875 396.31640625 C54.13681688 400.45090386 51.83459076 403.33943949 47.9375 405.9375 C43.55633989 406.38447607 39.15142007 406.26156442 34.75 406.25 C33.54279297 406.26611328 32.33558594 406.28222656 31.09179688 406.29882812 C24.24376792 406.30257226 19.17577659 405.7475345 12.9375 402.9375 C11.17367291 402.47255813 9.40319983 402.03152469 7.625 401.625 C2.5778363 400.28694699 -1.57651123 398.22409295 -6.0859375 395.625 C-9.50139118 393.6886798 -12.98230112 391.92872661 -16.5 390.1875 C-17.65371094 389.61515625 -18.80742188 389.0428125 -19.99609375 388.453125 C-21.79002659 387.56644227 -23.5916479 386.69449697 -25.41015625 385.859375 C-27.0625 384.9375 -27.0625 384.9375 -28.0625 382.9375 C-29.03532547 375.80023591 -25.88910581 370.51633606 -22.75 364.25 C-22.25048828 363.21810547 -21.75097656 362.18621094 -21.23632812 361.12304688 C-19.10022268 356.76312834 -17.01078642 352.79905193 -14.0625 348.9375 C-12.81436253 346.5529579 -11.60745721 344.17171227 -10.4375 341.75 C-7.18162916 335.05662916 -7.18162916 335.05662916 -6.0625 333.9375 C-0.85474013 333.50352001 2.96104441 334.41544954 7.82421875 336.28125 C10.20536976 337.13521052 10.20536976 337.13521052 13.9375 336.9375 C17.5275301 327.92003514 17.5275301 327.92003514 20.5 318.6875 C21.40544701 315.51843547 22.47760251 312.60936441 23.875 309.625 C26.13442516 304.79450483 27.55782194 299.78305676 29.0078125 294.66015625 C29.9375 291.9375 29.9375 291.9375 31.9375 289.9375 C28.6375 288.6175 25.3375 287.2975 21.9375 285.9375 C21.9375 285.2775 21.9375 284.6175 21.9375 283.9375 C21.195 283.64875 20.4525 283.36 19.6875 283.0625 C13.48651961 280.52573529 13.48651961 280.52573529 11.1875 278.0625 C8.14715748 275.1910654 4.7152876 273.66134483 0.9375 271.9375 C0.9375 271.2775 0.9375 270.6175 0.9375 269.9375 C0.256875 269.70675781 -0.42375 269.47601563 -1.125 269.23828125 C-4.79279118 267.61411308 -7.8258725 265.47293811 -11.0625 263.125 C-11.66578125 262.69896484 -12.2690625 262.27292969 -12.890625 261.83398438 C-18.44755298 257.84145243 -22.79293066 253.27446167 -27.0625 247.9375 C-28.7079378 246.24987149 -30.37538577 244.5834651 -32.0625 242.9375 C-42.25780174 232.99086416 -50.47901526 220.5352208 -57.0625 207.9375 C-57.46726562 207.25042969 -57.87203125 206.56335938 -58.2890625 205.85546875 C-64.79716973 194.77571564 -68.65513714 182.27392936 -72.0625 169.9375 C-72.26294922 169.24946289 -72.46339844 168.56142578 -72.66992188 167.85253906 C-76.38235197 154.6034238 -76.46015581 141.21765107 -76.5 127.5625 C-76.5061734 126.6577594 -76.5123468 125.7530188 -76.51870728 124.82086182 C-76.58656385 109.33448363 -75.70174153 94.93824492 -68 81.125 C-65.98336285 77.20674304 -65.2125328 73.37547134 -64.5546875 69.0390625 C-64.0625 66.9375 -64.0625 66.9375 -62.0625 64.9375 C-61.48242464 63.2694364 -60.96799418 61.57791076 -60.5 59.875 C-59.15972222 55.03472222 -59.15972222 55.03472222 -58.0625 53.9375 C-52.2214404 53.56663907 -52.2214404 53.56663907 -50.0625 53.9375 C-47.85328028 57.25132958 -47.117303 60.11383913 -46.0625 63.9375 C-45.711875 64.783125 -45.36125 65.62875 -45 66.5 C-44.0625 68.9375 -44.0625 68.9375 -43.625 72.125 C-43.439375 73.053125 -43.25375 73.98125 -43.0625 74.9375 C-42.0725 75.5975 -41.0825 76.2575 -40.0625 76.9375 C-39.3611716 79.26065031 -38.69764826 81.59539079 -38.0625 83.9375 C-37.0751546 85.61169438 -36.07437895 87.27801852 -35.0625 88.9375 C-34.40094132 90.78986431 -33.73980049 92.64238043 -33.08203125 94.49609375 C-31.30760695 98.7451941 -28.95882072 102.69385693 -26.68359375 106.69140625 C-25.00495052 110.05273764 -24.08077925 113.33200481 -23.0625 116.9375 C-22.0725 117.9275 -22.0725 117.9275 -21.0625 118.9375 C-20.93875 119.96875 -20.815 121 -20.6875 122.0625 C-19.94356188 126.67491636 -18.29098381 129.89045414 -16.0625 133.9375 C-15.66675781 134.73027344 -15.27101563 135.52304687 -14.86328125 136.33984375 C-14.45464844 137.13519531 -14.04601562 137.93054688 -13.625 138.75 C-13.25503906 139.47832031 -12.88507812 140.20664062 -12.50390625 140.95703125 C-11.13299328 143.11783495 -11.13299328 143.11783495 -8.5859375 144.390625 C-5.60150363 146.2200922 -4.72187401 147.7969675 -3.125 150.875 C-0.66096596 155.23931737 1.51363977 157.43705726 5.9375 159.9375 C6.515 160.618125 7.0925 161.29875 7.6875 162 C10.75053982 164.63761762 13.92600438 165.31076835 17.79296875 166.32421875 C19.9375 166.9375 19.9375 166.9375 20.9375 167.9375 C23.39559998 168.1875773 23.39559998 168.1875773 25.9375 167.9375 C28.18951973 166.13267336 28.18951973 166.13267336 28.0546875 163.6015625 C27.06984198 151.24333963 24.99780253 138.67297356 20.9375 126.9375 C20.61433487 125.48582171 20.32155917 124.02697735 20.0625 122.5625 C19.15457486 117.81223568 18.04390361 113.12883961 16.875 108.4375 C16.70049316 107.73061035 16.52598633 107.0237207 16.34619141 106.29541016 C15.412869 102.52093723 15.412869 102.52093723 13.9375 98.9375 C13.62151084 96.85771682 13.33397365 94.77356071 13.0625 92.6875 C12.34668819 87.81570621 11.30259356 84.27350486 8.9375 79.9375 C8.58823663 78.5294461 8.27928031 77.11108814 8 75.6875 C6.78516583 69.64395522 4.38437638 64.08926218 1.8203125 58.50390625 C0.80763636 55.55997604 0.73771808 53.22844971 0.8125 50.125 C0.83054687 49.14917969 0.84859375 48.17335937 0.8671875 47.16796875 C0.89039063 46.43191406 0.91359375 45.69585937 0.9375 44.9375 C0.30328125 44.66421875 -0.3309375 44.3909375 -0.984375 44.109375 C-3.0625 42.9375 -3.0625 42.9375 -4.3125 40.1875 C-5.05379181 36.9752355 -5.21882757 34.22037891 -5.0625 30.9375 C-6.5475 30.4425 -6.5475 30.4425 -8.0625 29.9375 C-12.50136684 21.5866348 -15.85541191 12.45244287 -15.0625 2.9375 C-11.64197512 -2.04519887 -5.34845815 -0.26112518 0 0 Z M53.9375 297.9375 C54.2675 298.5975 54.5975 299.2575 54.9375 299.9375 C57.96684491 300.59522428 57.96684491 300.59522428 60.9375 300.9375 C58.57796906 298.57796906 57.15854383 298.44608587 53.9375 297.9375 Z M60.9375 300.9375 C63.85515 302.8826 65.56287285 303.39026317 68.9375 303.9375 C67.75226003 302.33335785 67.75226003 302.33335785 65.9375 300.9375 C63.31179296 300.68680087 63.31179296 300.68680087 60.9375 300.9375 Z " fill="#1FC896" transform="translate(797.0625,183.0625)"/>
<path d="M0 0 C2.75 1.87890625 2.75 1.87890625 5 4 C5.886875 4.804375 6.77375 5.60875 7.6875 6.4375 C10 9 10 9 11.0625 11.75 C11.371875 12.4925 11.68125 13.235 12 14 C12.60457031 14.14695312 13.20914063 14.29390625 13.83203125 14.4453125 C16.50322744 15.12875369 17.63419068 16.23584903 19.625 18.125 C23.41804577 21.57837003 27.43271543 24.46286013 31.65625 27.36328125 C34.61577456 29.4300159 37.34420983 31.55387748 40 34 C40 34.66 40 35.32 40 36 C40.70125 36.2475 41.4025 36.495 42.125 36.75 C45.39514548 38.17180238 48.141122 39.87246288 51 42 C51 42.66 51 43.32 51 44 C51.86625 44.2475 52.7325 44.495 53.625 44.75 C57.21060064 46.07800024 59.96327987 47.68630848 63 50 C63 50.66 63 51.32 63 52 C63.680625 52.2475 64.36125 52.495 65.0625 52.75 C68.54401499 54.23149574 71.74526431 56.08706866 75 58 C76.31155497 58.75165139 77.62402137 59.5017152 78.9375 60.25 C79.948125 60.8275 80.95875 61.405 82 62 C82.125 69.75 82.125 69.75 81 72 C80.32155092 72.00938567 79.64310184 72.01877134 78.9440937 72.02844143 C62.45319243 72.25690956 45.96237637 72.49071294 29.47163582 72.73049068 C21.49691312 72.84631495 13.52217208 72.96031819 5.54736328 73.07006836 C-1.40163706 73.16570583 -8.35057945 73.26472547 -15.29947293 73.36784559 C-18.98051192 73.42235227 -22.66155782 73.4751387 -26.34267807 73.5238781 C-30.44712771 73.5782858 -34.55142944 73.6402427 -38.65576172 73.70288086 C-39.88286865 73.71798706 -41.10997559 73.73309326 -42.37426758 73.74865723 C-43.48768524 73.7668602 -44.60110291 73.78506317 -45.7482605 73.80381775 C-47.20561521 73.82455809 -47.20561521 73.82455809 -48.69241142 73.84571743 C-51.02708484 73.8524798 -51.02708484 73.8524798 -53 75 C-50.78725252 88.98268086 -48.07545839 102.56872037 -43.98144531 116.13208008 C-41.248028 125.32008035 -39.1463624 134.66114113 -37 144 C-36.67352438 145.40763268 -36.34673034 146.81519156 -36.01953125 148.22265625 C-35.34165435 151.14739273 -34.66794636 154.07298302 -34 157 C-29.98887764 157.87993282 -27.55902017 158.26757507 -23.875 156.375 C-20.14193744 154.55616543 -16.39346417 152.85579337 -12.5625 151.25 C-11.55316406 150.82203125 -10.54382813 150.3940625 -9.50390625 149.953125 C-7 149 -7 149 -5 149 C-4.814375 148.4225 -4.62875 147.845 -4.4375 147.25 C-2.68039214 144.49974422 -0.63632299 143.67362536 2.2109375 142.21484375 C4.30074713 140.79578088 5.15915467 139.41101234 6.4375 137.25 C8.42749875 134.13521934 8.42749875 134.13521934 11.05078125 133.515625 C13.25 133.5 13.25 133.5 17 134 C18 135 18 135 18.28125 138.46484375 C18.20770181 143.63045476 16.49297792 147.85432452 14.5 152.5625 C14.14123779 153.43148926 13.78247559 154.30047852 13.4128418 155.19580078 C7.37231067 169.5418976 0.15028779 186.35360938 -15 193 C-21.34322287 195.33697685 -27.41004647 195.34749455 -34.125 195.3125 C-35.79852539 195.30404053 -35.79852539 195.30404053 -37.50585938 195.29541016 C-49.69712606 195.11570818 -59.18325803 193.72939262 -69 186 C-69.886875 185.401875 -70.77375 184.80375 -71.6875 184.1875 C-75.17365131 180.8897893 -77.51080857 177.08273922 -80 173 C-80.98226562 171.39511719 -80.98226562 171.39511719 -81.984375 169.7578125 C-86.55247158 162.12348883 -90.13555785 154.45173805 -93 146 C-93.30808594 145.1028125 -93.61617187 144.205625 -93.93359375 143.28125 C-100.10438029 124.1488592 -98.39923152 101.76770668 -92 83 C-90.06891425 77.37903113 -90.06891425 77.37903113 -88.37353516 71.68481445 C-86.66100523 65.37430322 -84.14816651 60.04403864 -80.8125 54.4375 C-80.3278125 53.60976074 -79.843125 52.78202148 -79.34375 51.92919922 C-76.23717565 46.74167088 -72.95959153 42.07416954 -68.65625 37.7890625 C-66.88100933 36.0017528 -66.88100933 36.0017528 -65.5625 33.53125 C-63.84062933 30.74181951 -61.991137 28.99246645 -59.5 26.875 C-56.38582876 24.23100616 -56.38582876 24.23100616 -53.4609375 21.38671875 C-51.79461497 19.80504897 -50.19232346 18.93094143 -48.125 17.9375 C-47.42632812 17.60105469 -46.72765625 17.26460937 -46.0078125 16.91796875 C-43.70102962 15.86331121 -41.37501596 14.89063098 -39 14 C-39 13.34 -39 12.68 -39 12 C-37.44148245 11.17988688 -35.87798284 10.36923787 -34.3125 9.5625 C-33.44238281 9.11003906 -32.57226562 8.65757812 -31.67578125 8.19140625 C-29.09001736 7.04008072 -26.78643472 6.43679247 -24 6 C-24 5.34 -24 4.68 -24 4 C-16.31840974 0.03530825 -8.60641746 -1.42914869 0 0 Z " fill="#1EC895" transform="translate(335,628)"/>
<path d="M0 0 C0 0.66 0 1.32 0 2 C0.9075 2.103125 1.815 2.20625 2.75 2.3125 C6.03071844 3.00649813 7.60889095 3.70085668 10 6 C10 6.66 10 7.32 10 8 C10.66 8 11.32 8 12 8 C12 8.66 12 9.32 12 10 C12.804375 10.061875 13.60875 10.12375 14.4375 10.1875 C19.1635451 11.26536993 22.87513427 13.51591419 27 16 C27 16.66 27 17.32 27 18 C27.5671875 18.27328125 28.134375 18.5465625 28.71875 18.828125 C35.36053715 22.24000196 40.01540226 25.5961822 44 32 C45.64821244 33.03013277 47.31503702 34.03114628 49 35 C52.88152107 39.12411613 55.34241442 44.04613202 58 49 C58.87121629 50.60622473 59.74611929 52.21045618 60.625 53.8125 C61.00914062 54.52019531 61.39328125 55.22789062 61.7890625 55.95703125 C62.97700493 58.05390872 62.97700493 58.05390872 64.5625 60.03515625 C66.96578956 63.32008735 67.85015802 67.14524341 69 71 C69.29076416 71.90129639 69.29076416 71.90129639 69.58740234 72.82080078 C77.04823812 95.97375128 79.88063747 123.47317732 70.9296875 146.50390625 C69.882028 149.15998381 69.882028 149.15998381 69.125 152.6875 C67.59191914 157.20157143 64.96111995 160.31803462 62 164 C61.01701994 165.33052446 60.03781403 166.66384593 59.0625 168 C58.04535386 169.33614827 57.02448302 170.66946889 56 172 C55.50113281 172.67160156 55.00226563 173.34320312 54.48828125 174.03515625 C47.74353851 182.51099519 38.40504064 187.50632682 27.8359375 189.56640625 C22.94523886 190.11922453 18.10703268 190.31718361 13.1875 190.375 C11.86214233 190.39614868 11.86214233 190.39614868 10.51000977 190.41772461 C0.50201263 190.34325614 -6.78561597 186.47188201 -15 181 C-15.70382812 180.55527344 -16.40765625 180.11054687 -17.1328125 179.65234375 C-26.79999734 172.54411961 -32.43390583 156.39492445 -35 145 C-35.22127864 142.27261216 -35.13319739 139.75274615 -35 137 C-33 135 -33 135 -30.625 134.625 C-27.2064549 135.11336359 -26.28716796 136.4914932 -24 139 C-23.319375 139.33 -22.63875 139.66 -21.9375 140 C-20 141 -20 141 -18.8125 142.875 C-16.41784723 145.68252394 -13.88843053 146.54855257 -10.51171875 147.9296875 C-7.99345588 149.00278863 -5.65256418 150.25343567 -3.25 151.5625 C2.55256637 154.52784938 8.6370843 155.77329368 15 157 C15.0825 155.948125 15.165 154.89625 15.25 153.8125 C16.10127862 146.90357205 18.29489735 139.96788925 21.0390625 133.58203125 C22.27935977 130.24936258 22.84742289 126.86653144 23.4375 123.375 C24.28406 118.59429814 25.21442316 113.92060965 26.5625 109.25 C27.91900913 104.54790357 28.71843385 99.86591956 29.47265625 95.03515625 C30.35633435 89.94909786 31.69995441 84.99217508 33 80 C33.99 76.04 34.98 72.08 36 68 C-8.22 68 -52.44 68 -98 68 C-99.60725635 64.78548731 -99.05748185 61.56387464 -99 58 C-98.03513672 57.50693359 -98.03513672 57.50693359 -97.05078125 57.00390625 C-89.26303498 52.90450771 -82.1672467 48.06728907 -75 43 C-70.34133799 39.7985498 -65.63966958 36.77480459 -60.75 33.9375 C-56.32311893 31.30326628 -52.93635916 28.46228387 -49.734375 24.390625 C-46.37621649 20.14235219 -46.37621649 20.14235219 -43.6875 19.125 C-43.130625 19.08375 -42.57375 19.0425 -42 19 C-41.91878906 18.38769531 -41.83757813 17.77539062 -41.75390625 17.14453125 C-41 15 -41 15 -39.21484375 13.76171875 C-38.46332031 13.40722656 -37.71179688 13.05273438 -36.9375 12.6875 C-31.28361091 9.7658731 -26.2211297 6.04500738 -22.44140625 0.86328125 C-17.03752989 -6.12221746 -6.63460778 -3.31730389 0 0 Z " fill="#1EC896" transform="translate(741,632)"/>
<path d="M0 0 C6.95359467 6.36541467 10.55753103 13.07158346 11.16015625 22.5078125 C11.36739588 28.97729324 10.44272542 34.03520537 8 40 C7.5875 41.175625 7.175 42.35125 6.75 43.5625 C4.18652912 48.59788923 0.87233229 53.3510685 -4.109375 56.2109375 C-8.36790458 57.37340098 -12.48039925 57.32858565 -16.875 57.3125 C-18.18404297 57.33666992 -18.18404297 57.33666992 -19.51953125 57.36132812 C-25.89151569 57.36611909 -30.88431438 56.6715073 -35.890625 52.37890625 C-43.62612332 42.04268004 -44.39101667 28.96895278 -42.6484375 16.48046875 C-40.92816042 8.85585084 -37.36167901 2.58875207 -31 -2 C-20.31367586 -6.64765093 -9.67606933 -6.7375315 0 0 Z " fill="#1EC895" transform="translate(630,304)"/>
<path d="M0 0 C2.5753534 1.98618057 3.49113421 3.87503678 4.4375 6.9375 C5.72103344 10.56430476 7.08874353 12.41221647 10 15 C11.22301138 16.34092504 12.43006008 17.69650022 13.625 19.0625 C14.21539062 19.73410156 14.80578125 20.40570312 15.4140625 21.09765625 C18.22468389 24.46901738 19.25085988 26.34533429 19.125 30.6875 C19.10695313 31.49574219 19.08890625 32.30398438 19.0703125 33.13671875 C19.04710937 33.75160156 19.02390625 34.36648438 19 35 C13.21988221 38.40904834 7.00013195 39.60852312 0.5 41.0625 C-0.59570312 41.31837891 -1.69140625 41.57425781 -2.8203125 41.83789062 C-17.63373808 45.21167432 -31.58932983 46.32494129 -46.73291016 46.26074219 C-49.75833951 46.24997031 -52.78318174 46.26071952 -55.80859375 46.2734375 C-57.76302212 46.27211653 -59.71745013 46.26955545 -61.671875 46.265625 C-62.56066345 46.26967346 -63.4494519 46.27372192 -64.36517334 46.27789307 C-79.19575906 46.16853894 -79.19575906 46.16853894 -83.75653076 42.6416626 C-85.88654289 39.82956147 -85.41511662 37.38023534 -85 34 C-82.18218149 30.41948214 -79.92676995 29.40734581 -75.4921875 28.65625 C-73.88730469 28.36427734 -73.88730469 28.36427734 -72.25 28.06640625 C-71.13625 27.87949219 -70.0225 27.69257812 -68.875 27.5 C-60.77088378 26.11099663 -53.53049932 24.32048009 -46 21 C-44.25 20.33333333 -42.5 19.66666667 -40.75 19 C-37.72184791 17.80293363 -35.48714027 16.65480595 -32.75 14.8125 C-29.74910482 12.83463727 -27.54536258 12.33765358 -24 12 C-24 11.34 -24 10.68 -24 10 C-22.12986004 8.77970427 -20.20149253 7.64795936 -18.25 6.5625 C-13.9057296 4.15814905 -13.9057296 4.15814905 -9.86328125 1.30078125 C-6.57992983 -0.99136974 -3.91390869 -0.37275321 0 0 Z " fill="#1EC895" transform="translate(303,586)"/>
<path d="M0 0 C2.05078125 0.03255208 4.1015625 0.06510417 6.15234375 0.09765625 C6.48234375 1.08765625 6.81234375 2.07765625 7.15234375 3.09765625 C9.13870673 3.80391864 11.14082634 4.46659196 13.15234375 5.09765625 C14.5085662 6.06638657 15.84651428 7.0619984 17.15234375 8.09765625 C18.14234375 8.42765625 19.13234375 8.75765625 20.15234375 9.09765625 C20.15234375 9.75765625 20.15234375 10.41765625 20.15234375 11.09765625 C21.14234375 11.36578125 22.13234375 11.63390625 23.15234375 11.91015625 C28.59094552 13.47498533 33.80132132 15.34380804 38.81640625 17.98046875 C43.28573634 20.23399064 47.86555246 21.95803835 52.58984375 23.59765625 C53.45077637 23.89953857 54.31170898 24.2014209 55.19873047 24.51245117 C61.69539143 26.7330478 68.22285747 28.47537702 74.94702148 29.85546875 C79.96093629 30.90624879 79.96093629 30.90624879 82.15234375 33.09765625 C82.70882911 39.21899516 82.70882911 39.21899516 80.96484375 41.97265625 C76.28688059 44.87621959 70.30346063 44.28875498 64.98046875 44.3359375 C64.07750061 44.34564072 63.17453247 44.35534393 62.24420166 44.36534119 C59.2968707 44.39039561 56.34977086 44.40289658 53.40234375 44.41015625 C52.39824463 44.41277466 51.39414551 44.41539307 50.35961914 44.41809082 C37.03231555 44.42180671 23.88309365 43.99432688 10.65234375 42.34765625 C9.36360352 42.19079346 8.07486328 42.03393066 6.74707031 41.87231445 C-15.42093271 38.81298918 -15.42093271 38.81298918 -20.84765625 32.09765625 C-21.5341469 28.52790489 -21.50138798 26.24005788 -19.671875 23.04296875 C-17.46064374 20.01466754 -15.13140349 17.36685235 -12.41015625 14.78515625 C-9.11553231 11.32981894 -6.79550042 7.48241156 -4.30078125 3.42578125 C-2.23631689 0.11819857 -2.23631689 0.11819857 0 0 Z " fill="#1DC895" transform="translate(754.84765625,586.90234375)"/>
<path d="M0 0 C0.88171875 0.07089844 1.7634375 0.14179688 2.671875 0.21484375 C9.93697792 1.10792961 14.22476018 3.4667856 19 9 C26.85788443 19.1701796 25.68964552 31.87632888 24.76171875 44.15234375 C23.87751879 49.9487657 21.72707963 54.3851744 17 58 C11.38195333 61.01370092 6.75205418 61.4642867 0.4375 61.375 C-0.7990332 61.39240234 -0.7990332 61.39240234 -2.06054688 61.41015625 C-8.58039219 61.37888601 -12.80405799 60.04273675 -17.6875 55.5 C-18.450625 54.675 -19.21375 53.85 -20 53 C-20.51860596 52.53722656 -21.03721191 52.07445312 -21.5715332 51.59765625 C-26.07748894 46.55800929 -25.33697829 37.36435539 -25.3125 31 C-25.32861328 30.16210938 -25.34472656 29.32421875 -25.36132812 28.4609375 C-25.36836477 19.36959508 -23.20003752 12.36143877 -16.88671875 5.73046875 C-11.73076893 1.0015127 -7.05945729 -0.77752764 0 0 Z " fill="#1EC896" transform="translate(441,300)"/>
</svg>
